<?xml version="1.0" encoding="utf-8"?>
<!-- Generator: Adobe Illustrator 24.1.0, SVG Export Plug-In . SVG Version: 6.00 Build 0)  -->
<svg version="1.1" id="Livello_1" xmlns="http://www.w3.org/2000/svg" xmlns:xlink="http://www.w3.org/1999/xlink" x="0px" y="0px"
	 viewBox="0 0 512 108.3" style="enable-background:new 0 0 512 108.3;" xml:space="preserve">
<style type="text/css">
	.st0{fill:#9A1C30;}
	.st1{fill:#D8273A;}
	.st2{fill:url(#SVGID_1_);}
	.st3{fill:url(#SVGID_2_);}
	.st4{fill:url(#SVGID_3_);}
	.st5{fill:url(#SVGID_4_);}
</style>
<g>
	<g>
		<path class="st0" d="M85.2,72.7L56.3,23.4l0.2,61.2l12.9,22c0,0,2,1.7,4,1.7s4-1,4-1s24.9-14.3,29.8-17.4s5.3-6.7,5.3-6.7l0-2.1
			l0-8.4L85.2,72.7z"/>
		<path class="st0" d="M0,72.7l0.2,10.5c0,0,0.3,3.7,5.3,6.7c5,3,29.8,17.4,29.8,17.4s2,1,4,1c2,0,4-1.7,4-1.7l12.9-22l0.2-61.2
			L27.5,72.7H0z"/>
		<path class="st1" d="M85.2,72.7V35.4L56.3,84.8L27.5,35.4v37.4H0L0.3,25c0,0-0.3-2.3,2.7-5c1.9-1.7,4.4-3,6.6-4.3
			c3.9-2.4,7.9-4.6,11.8-6.9c3.6-2.1,7.3-4.1,10.9-6.2c1.1-0.6,2.2-1.3,3.4-1.9c2.2-1.2,5.6-0.9,7.3,0.9C45.4,4,56.3,23.4,56.3,23.4
			S67.3,4,69.6,1.7c1.7-1.7,5.2-2.1,7.2-1c0.4,0.2,0.7,0.4,1,0.6c0.8,0.4,1.6,0.9,2.4,1.3c3.6,2,7.2,4.1,10.8,6.2
			c4,2.3,7.9,4.5,11.8,6.9c2.3,1.4,4.8,2.6,6.8,4.4c3,2.7,2.7,5,2.7,5l0.2,47.7"/>
		<linearGradient id="SVGID_1_" gradientUnits="userSpaceOnUse" x1="50.6504" y1="64.4396" x2="38.186" y2="83.3441">
			<stop  offset="0" style="stop-color:#591223"/>
			<stop  offset="1" style="stop-color:#9A1C30"/>
		</linearGradient>
		<polygon class="st2" points="56.3,84.8 33.9,61.7 38.4,54.1 		"/>
		
			<linearGradient id="SVGID_2_" gradientUnits="userSpaceOnUse" x1="2040.9894" y1="64.4396" x2="2028.5251" y2="83.3441" gradientTransform="matrix(-1 0 0 1 2103.052 0)">
			<stop  offset="0" style="stop-color:#591223"/>
			<stop  offset="1" style="stop-color:#9A1C30"/>
		</linearGradient>
		<polygon class="st3" points="56.4,84.8 78.8,61.7 74.3,54.1 		"/>
		<linearGradient id="SVGID_3_" gradientUnits="userSpaceOnUse" x1="10.4858" y1="65.0083" x2="24.4656" y2="103.9732">
			<stop  offset="0.1235" style="stop-color:#D8273A"/>
			<stop  offset="0.1937" style="stop-color:#C52437"/>
			<stop  offset="0.3218" style="stop-color:#9A1C30"/>
		</linearGradient>
		<polygon class="st4" points="0,65.8 0,82.2 27.4,75.2 27.4,65.8 		"/>
		
			<linearGradient id="SVGID_4_" gradientUnits="userSpaceOnUse" x1="508.1185" y1="65.0217" x2="522.0983" y2="103.9866" gradientTransform="matrix(-1 0 0 1 610.1922 0)">
			<stop  offset="0.1235" style="stop-color:#D8273A"/>
			<stop  offset="0.1937" style="stop-color:#C52437"/>
			<stop  offset="0.3218" style="stop-color:#9A1C30"/>
		</linearGradient>
		<polygon class="st5" points="112.5,65.8 112.5,82.2 85.1,75.2 85.2,65.7 		"/>
	</g>
	<g>
		<path class="st1" d="M174.3,45.7c-0.9-6.5-4.7-10.9-9.8-10.9c-4.4,0-9,3.5-11.1,7.9l2.2,16.2h-11.9l-4.4-35.1h11.9l1.2,7.4
			c2.5-4,8.3-8.8,15.4-8.8c7.4,0,11.8,4.1,14.4,8.6c2.8-3.9,7.7-8.6,15.9-8.6c11.2,0,17.8,8.1,19.7,22.8l1.7,13.7h-11.7L206.2,46
			c-0.9-6.8-5.3-11.5-10.5-11.5c-4.6,0-8.3,3.3-10.2,7.6l5.2,40.1h-11.9L174.3,45.7z"/>
		<path class="st1" d="M228.4,53.4c-2.2-17.7,7.8-31,22.6-31c7.9,0,13.6,5.2,15.6,8.4l-0.9-7h11.5l5.2,40.6c0.7,4.9,2,7.9,4.8,7.9
			c0.9,0,1.6-0.2,1.9-0.9l3.6,6.6c-1.2,2.9-4.4,5.5-9.8,5.5c-3.5,0-9.1-1.9-11-7.9l-4.1-32.8c-2.4-4.6-7.8-9.7-15.2-9.7
			c-8.6,0-14.3,7.7-12.9,19c1.3,10.5,8.3,19.3,16.6,20.5l0.8,10.9C242.9,83,230.4,69.8,228.4,53.4z"/>
		<path class="st1" d="M293.9,23.8h11.9l1.2,8.3c2.1-4,7.5-9.7,15.6-9.7c11.8,0,18.4,7.1,20.4,23.1l4.5,36.7h-11.8l-4.4-35.8
			c-0.9-6.6-5.7-11.1-10.8-11.1c-5.7,0-9.8,4-12.3,9.7l1.9,13.9h-11.9L293.9,23.8z"/>
		<path class="st1" d="M364.1,26.5l3.6,30.5c1.5,9.6,10.2,15.1,18.9,15.1c7.3,0,13.9-1.7,17.4-5.2l3.6,10.1
			c-3.8,3.8-11.6,6.6-21.6,6.6c-16.8,0-29-11.4-31.2-29.3C353.2,42.4,356.6,31.9,364.1,26.5z M405,49.3c0.3,2.9,0.2,6.4-0.1,7.9
			l-20.1,0.3l-1.2-10.1l9.8,0.4c-0.9-7.3-5.7-12.6-11.8-14l-0.8-11.1C395.3,24.4,403.4,36.3,405,49.3z"/>
		<path class="st1" d="M411.4,23.8h11.9l1.2,8.3c2.1-4,7.5-9.7,15.6-9.7c11.8,0,18.4,7.1,20.4,23.1l4.5,36.7h-11.8l-4.4-35.8
			c-0.9-6.6-5.7-11.1-10.8-11.1c-5.7,0-9.8,4-12.3,9.7l1.9,13.9h-11.9L411.4,23.8z"/>
		<path class="st1" d="M468.3,23.8h8.2l-2.1-17L486.2,6l2.2,17.8h13.2l1.4,11.2h-33.3L468.3,23.8z M481.4,63.1l-0.5-4.2h11.9
			l0.4,3.3c0.8,5.8,4.3,9.3,8.4,9.3c3,0,5.1-0.9,6.5-2.7l3.8,9.8c-2,2.7-6,5.1-11.8,5.1C489.9,83.7,483.3,77.7,481.4,63.1z"/>
	</g>
</g>
</svg>
