<?xml version="1.0" encoding="utf-8"?>
<!-- Generator: Adobe Illustrator 24.1.0, SVG Export Plug-In . SVG Version: 6.00 Build 0)  -->
<svg version="1.1" id="Livello_1" xmlns="http://www.w3.org/2000/svg" xmlns:xlink="http://www.w3.org/1999/xlink" x="0px" y="0px"
	 viewBox="0 0 512 114.7" style="enable-background:new 0 0 512 114.7;" xml:space="preserve">
<style type="text/css">
	.st0{fill:#9C9B9B;}
	.st1{fill:#FFFFFF;}
	.st2{fill:#717070;}
	.st3{fill:url(#SVGID_1_);}
	.st4{fill:url(#SVGID_2_);}
</style>
<g>
	<g>
		<path class="st0" d="M90.2,77L59.7,24.7l0.2,64.9l13.7,23.3c0,0,2.1,1.8,4.2,1.8c2.1,0,4.2-1.1,4.2-1.1s26.3-15.2,31.6-18.4
			c5.3-3.2,5.6-7.1,5.6-7.1l0-2.2l0-8.9L90.2,77z"/>
		<path class="st0" d="M0,77l0.2,11.1c0,0,0.4,3.9,5.6,7.1c5.3,3.2,31.6,18.4,31.6,18.4s2.1,1.1,4.2,1.1c2.1,0,4.2-1.8,4.2-1.8
			l13.7-23.3l0.2-64.9L29.1,77H0z"/>
		<path class="st1" d="M90.2,77V37.5L59.7,89.8L29.1,37.5V77H0l0.4-50.5c0,0-0.4-2.5,2.8-5.3c2-1.8,4.7-3.1,7-4.5
			c4.1-2.5,8.3-4.9,12.5-7.3c3.8-2.2,7.7-4.4,11.6-6.6c1.2-0.7,2.4-1.3,3.6-2c2.3-1.3,5.9-0.9,7.8,1c2.5,2.5,14,23,14,23
			s11.6-20.5,14-23c1.8-1.8,5.5-2.3,7.6-1.1c0.4,0.2,0.7,0.4,1.1,0.6c0.8,0.5,1.7,0.9,2.5,1.4c3.8,2.2,7.7,4.3,11.5,6.5
			c4.2,2.4,8.4,4.8,12.5,7.3c2.4,1.4,5.1,2.8,7.2,4.7c3.2,2.8,2.8,5.3,2.8,5.3l0.2,50.6"/>
		<polygon class="st2" points="59.7,89.8 36,65.4 40.7,57.2 		"/>
		<polygon class="st2" points="59.7,89.8 83.4,65.4 78.7,57.2 		"/>
		<linearGradient id="SVGID_1_" gradientUnits="userSpaceOnUse" x1="11.1056" y1="68.8507" x2="25.9116" y2="110.1187">
			<stop  offset="0.1235" style="stop-color:#FFFFFF"/>
			<stop  offset="0.1687" style="stop-color:#EDECEC"/>
			<stop  offset="0.2596" style="stop-color:#BDBCBC"/>
			<stop  offset="0.3162" style="stop-color:#9C9B9B"/>
		</linearGradient>
		<polygon class="st3" points="0,69.7 0,87 29,79.6 29,69.7 		"/>
		
			<linearGradient id="SVGID_2_" gradientUnits="userSpaceOnUse" x1="608.5997" y1="68.8649" x2="623.4058" y2="110.1329" gradientTransform="matrix(-1 0 0 1 716.7066 0)">
			<stop  offset="0.1235" style="stop-color:#FFFFFF"/>
			<stop  offset="0.1687" style="stop-color:#EDECEC"/>
			<stop  offset="0.2596" style="stop-color:#BDBCBC"/>
			<stop  offset="0.3162" style="stop-color:#9C9B9B"/>
		</linearGradient>
		<polygon class="st4" points="119.2,69.7 119.2,87 90.2,79.6 90.3,69.6 		"/>
	</g>
	<g>
		<path class="st1" d="M172,45.8c-0.9-6.5-4.7-11-9.9-11c-4.4,0-9.1,3.5-11.2,7.9l2.2,16.3h-12l-4.4-35.3h12l1.2,7.5
			c2.5-4,8.4-8.9,15.6-8.9c7.4,0,11.9,4.1,14.5,8.7c2.8-3.9,7.7-8.7,16-8.7c11.3,0,18,8.1,19.8,22.9l1.7,13.8h-11.8l-1.6-12.9
			c-0.9-6.8-5.3-11.6-10.5-11.6c-4.6,0-8.4,3.4-10.2,7.6l5.2,40.4h-12L172,45.8z"/>
		<path class="st1" d="M226.5,53.5c-2.2-17.8,7.8-31.2,22.8-31.2c7.9,0,13.7,5.2,15.7,8.5l-0.9-7.1h11.6l5.2,40.8
			c0.7,4.9,2,7.9,4.8,7.9c0.9,0,1.6-0.2,1.9-0.9l3.7,6.6c-1.2,2.9-4.4,5.5-9.9,5.5c-3.5,0-9.2-2-11.1-7.9l-4.2-33
			c-2.4-4.7-7.8-9.8-15.3-9.8c-8.7,0-14.4,7.7-12.9,19.1c1.4,10.5,8.4,19.4,16.7,20.6l0.8,11C241,83.4,228.5,70,226.5,53.5z"/>
		<path class="st1" d="M292.4,23.7h12l1.3,8.4c2.1-4,7.5-9.8,15.7-9.8c11.9,0,18.5,7.2,20.6,23.2l4.5,36.9h-11.9l-4.4-36.1
			c-0.9-6.6-5.7-11.2-10.9-11.2c-5.7,0-9.9,4-12.4,9.8l1.9,14h-12L292.4,23.7z"/>
		<path class="st1" d="M363,26.4l3.6,30.7c1.5,9.7,10.2,15.2,19,15.2c7.3,0,14-1.7,17.5-5.2l3.7,10.2c-3.9,3.8-11.7,6.6-21.7,6.6
			c-16.9,0-29.2-11.5-31.4-29.5C352.1,42.4,355.5,31.9,363,26.4z M404.3,49.4c0.3,2.9,0.2,6.4-0.1,7.9L384,57.6l-1.3-10.2l9.9,0.4
			c-0.9-7.4-5.7-12.7-11.9-14.1L380,22.5C394.5,24.3,402.7,36.3,404.3,49.4z"/>
		<path class="st1" d="M410.7,23.7h12l1.3,8.4c2.1-4,7.5-9.8,15.7-9.8c11.9,0,18.5,7.2,20.6,23.2l4.5,36.9h-11.9l-4.4-36.1
			c-0.9-6.6-5.7-11.2-10.9-11.2c-5.7,0-9.9,4-12.4,9.8l1.9,14h-12L410.7,23.7z"/>
		<path class="st1" d="M468,23.7h8.2l-2.1-17.2L486,5.8l2.2,17.9h13.3L503,35h-33.5L468,23.7z M481.2,63.3l-0.5-4.2h12l0.4,3.4
			c0.8,5.9,4.3,9.3,8.5,9.3c3,0,5.1-0.9,6.6-2.7l3.9,9.9c-2,2.7-6.1,5.1-11.9,5.1C489.8,84,483.1,78,481.2,63.3z"/>
	</g>
</g>
</svg>
