<?xml version="1.0" encoding="utf-8"?>
<!-- Generator: Adobe Illustrator 24.1.0, SVG Export Plug-In . SVG Version: 6.00 Build 0)  -->
<svg version="1.1" id="Livello_1" xmlns="http://www.w3.org/2000/svg" xmlns:xlink="http://www.w3.org/1999/xlink" x="0px" y="0px"
	 viewBox="0 0 512 489.1" style="enable-background:new 0 0 512 489.1;" xml:space="preserve">
<style type="text/css">
	.st0{fill:#9C9B9B;}
	.st1{fill:#FFFFFF;}
	.st2{fill:#717070;}
	.st3{fill:url(#SVGID_1_);}
	.st4{fill:url(#SVGID_2_);}
</style>
<g>
	<path class="st0" d="M384.3,327.2l-128-219.3l0.7,271.9l57.4,97.8c0,0,8.8,7.4,17.7,7.4c8.8,0,17.7-4.4,17.7-4.4
		s110.4-63.7,132.5-77.1c22.1-13.3,23.5-29.6,23.5-29.6l0.1-9.4l0.1-37.3L384.3,327.2z"/>
	<path class="st0" d="M6,327.2l0.7,46.7c0,0,1.5,16.3,23.5,29.6c22.1,13.3,132.5,77.1,132.5,77.1s8.8,4.4,17.7,4.4
		c8.8,0,17.7-7.4,17.7-7.4l57.4-97.8l0.7-271.9l-128,219.3H6z"/>
	<path class="st1" d="M384.3,327.2v-166l-128,219.3l-128-219.3v166H6l1.5-211.9c0,0-1.5-10.4,11.8-22.2C27.8,85.4,39,79.8,48.8,74
		c17.4-10.4,34.9-20.6,52.5-30.7c16.1-9.3,32.3-18.4,48.5-27.6c5-2.8,10-5.6,14.9-8.4c9.6-5.5,24.7-3.8,32.6,4.2
		c10.3,10.4,58.9,96.3,58.9,96.3s48.6-85.9,58.9-96.3c7.3-7.4,22.9-9.5,32-4.6c1.6,0.8,3.1,1.8,4.6,2.7c3.5,2,7,4,10.6,5.9
		c16.1,9.1,32.2,18.2,48.2,27.3C428.1,53,445.6,63.1,463,73.5c10,6,21.5,11.7,30.2,19.5c13.2,11.9,11.8,22.2,11.8,22.2l1,212"/>
	<polygon class="st2" points="256.2,380.5 156.8,278.2 176.7,244.2 	"/>
	<polygon class="st2" points="256.4,380.5 355.8,278.2 336,244.2 	"/>
	<linearGradient id="SVGID_1_" gradientUnits="userSpaceOnUse" x1="52.6114" y1="292.8293" x2="114.694" y2="465.8689">
		<stop  offset="0.1235" style="stop-color:#FFFFFF"/>
		<stop  offset="0.1687" style="stop-color:#EDECEC"/>
		<stop  offset="0.2596" style="stop-color:#BDBCBC"/>
		<stop  offset="0.3162" style="stop-color:#9C9B9B"/>
	</linearGradient>
	<polygon class="st3" points="6.1,296.3 6.1,369 127.7,338 127.7,296.3 	"/>
	
		<linearGradient id="SVGID_2_" gradientUnits="userSpaceOnUse" x1="310.3692" y1="292.8887" x2="372.4518" y2="465.9283" gradientTransform="matrix(-1 0 0 1 769.7135 0)">
		<stop  offset="0.1235" style="stop-color:#FFFFFF"/>
		<stop  offset="0.1687" style="stop-color:#EDECEC"/>
		<stop  offset="0.2596" style="stop-color:#BDBCBC"/>
		<stop  offset="0.3162" style="stop-color:#9C9B9B"/>
	</linearGradient>
	<polygon class="st4" points="505.7,296.3 505.7,369 384.1,338 384.5,296 	"/>
</g>
</svg>
