<?xml version="1.0" encoding="utf-8"?>
<!-- Generator: Adobe Illustrator 24.1.0, SVG Export Plug-In . SVG Version: 6.00 Build 0)  -->
<svg version="1.1" id="Livello_1" xmlns="http://www.w3.org/2000/svg" xmlns:xlink="http://www.w3.org/1999/xlink" x="0px" y="0px"
	 viewBox="0 0 512 489.1" style="enable-background:new 0 0 512 489.1;" xml:space="preserve">
<style type="text/css">
	.st0{fill:#9A1C30;}
	.st1{fill:#D8273A;}
	.st2{fill:url(#SVGID_1_);}
	.st3{fill:url(#SVGID_2_);}
	.st4{fill:url(#SVGID_3_);}
	.st5{fill:url(#SVGID_4_);}
</style>
<g>
	<path class="st0" d="M387.4,328.6L256.3,105.5l0.8,276.6l58.8,99.5c0,0,9,7.5,18.1,7.5c9,0,18.1-4.5,18.1-4.5
		s113.1-64.8,135.7-78.4c22.6-13.6,24.1-30.1,24.1-30.1l0.2-9.5l0.1-37.9L387.4,328.6z"/>
	<path class="st0" d="M0,328.6l0.8,47.5c0,0,1.5,16.6,24.1,30.1c22.6,13.6,135.7,78.4,135.7,78.4s9,4.5,18.1,4.5
		c9,0,18.1-7.5,18.1-7.5l58.8-99.5l0.8-276.6L125.1,328.6H0z"/>
	<path class="st1" d="M387.4,328.6V159.8L256.3,382.8L125.1,159.8v168.8H0L1.5,113c0,0-1.5-10.6,12.1-22.6
		C22.3,82.6,33.8,77,43.8,71c17.8-10.6,35.8-20.9,53.8-31.2c16.5-9.4,33.1-18.7,49.7-28c5.1-2.9,10.2-5.7,15.3-8.6
		c9.8-5.6,25.3-3.9,33.4,4.3c10.6,10.6,60.3,98,60.3,98s49.7-87.4,60.3-98c7.5-7.5,23.4-9.6,32.8-4.6c1.6,0.9,3.2,1.8,4.7,2.7
		c3.6,2,7.2,4,10.8,6c16.5,9.2,32.9,18.5,49.3,27.8c18,10.2,36,20.5,53.7,31.1c10.2,6.1,22,11.9,31,19.8
		C512.5,102.5,511,113,511,113l1,215.6"/>
	<linearGradient id="SVGID_1_" gradientUnits="userSpaceOnUse" x1="230.2079" y1="291.1867" x2="174.1456" y2="376.2162">
		<stop  offset="0" style="stop-color:#591223"/>
		<stop  offset="1" style="stop-color:#9A1C30"/>
	</linearGradient>
	<polygon class="st2" points="256.3,382.8 154.4,278.7 174.7,244.2 	"/>
	
		<linearGradient id="SVGID_2_" gradientUnits="userSpaceOnUse" x1="1980.1285" y1="291.1867" x2="1924.0662" y2="376.2162" gradientTransform="matrix(-1 0 0 1 2262.5735 0)">
		<stop  offset="0" style="stop-color:#591223"/>
		<stop  offset="1" style="stop-color:#9A1C30"/>
	</linearGradient>
	<polygon class="st3" points="256.4,382.8 358.2,278.7 337.9,244.2 	"/>
	<linearGradient id="SVGID_3_" gradientUnits="userSpaceOnUse" x1="47.7592" y1="293.566" x2="111.131" y2="470.1988">
		<stop  offset="0.1235" style="stop-color:#D8273A"/>
		<stop  offset="0.1937" style="stop-color:#C52437"/>
		<stop  offset="0.3218" style="stop-color:#9A1C30"/>
	</linearGradient>
	<polygon class="st4" points="0,297.2 0,371.2 124.6,339.7 124.6,297.2 	"/>
	
		<linearGradient id="SVGID_4_" gradientUnits="userSpaceOnUse" x1="305.5178" y1="293.627" x2="368.8896" y2="470.2597" gradientTransform="matrix(-1 0 0 1 769.7135 0)">
		<stop  offset="0.1235" style="stop-color:#D8273A"/>
		<stop  offset="0.1937" style="stop-color:#C52437"/>
		<stop  offset="0.3218" style="stop-color:#9A1C30"/>
	</linearGradient>
	<polygon class="st5" points="511.8,297.2 511.7,371.2 387.2,339.7 387.6,296.9 	"/>
</g>
</svg>
